<?xml version="1.0" encoding="UTF-8"?>
<!DOCTYPE svg PUBLIC "-//W3C//DTD SVG 1.1//EN" "http://www.w3.org/Graphics/SVG/1.1/DTD/svg11.dtd">
<svg xmlns="http://www.w3.org/2000/svg" version="1.1" width="290px" height="193px" style="shape-rendering:geometricPrecision; text-rendering:geometricPrecision; image-rendering:optimizeQuality; fill-rule:evenodd; clip-rule:evenodd" xmlns:xlink="http://www.w3.org/1999/xlink">
<g><path style="opacity:0.596" fill="#1c1c1c" d="M 140.5,79.5 C 147.841,79.3337 155.174,79.5003 162.5,80C 163.833,81.6667 163.833,83.3333 162.5,85C 154.833,85.6667 147.167,85.6667 139.5,85C 138.243,82.9235 138.576,81.0902 140.5,79.5 Z"/></g>
<g><path style="opacity:0.565" fill="#191919" d="M 198.5,79.5 C 200.167,79.5 201.833,79.5 203.5,79.5C 203.5,86.5 203.5,93.5 203.5,100.5C 207.846,100.334 212.179,100.501 216.5,101C 218.192,102.401 218.859,104.234 218.5,106.5C 211.578,106.812 204.744,106.479 198,105.5C 197.198,96.7551 197.364,88.0884 198.5,79.5 Z"/></g>
<g><path style="opacity:1" fill="#343434" d="M 140.5,81.5 C 147.5,81.5 154.5,81.5 161.5,81.5C 161.5,82.5 161.5,83.5 161.5,84.5C 154.5,84.5 147.5,84.5 140.5,84.5C 140.5,83.5 140.5,82.5 140.5,81.5 Z"/></g>
<g><path style="opacity:1" fill="#353535" d="M 199.5,81.5 C 200.5,81.5 201.5,81.5 202.5,81.5C 202.5,88.5 202.5,95.5 202.5,102.5C 207.544,102.173 212.544,102.506 217.5,103.5C 217.333,103.833 217.167,104.167 217,104.5C 211.259,105.475 205.425,105.808 199.5,105.5C 199.5,97.5 199.5,89.5 199.5,81.5 Z"/></g>
<g><path style="opacity:0.592" fill="#1b1b1b" d="M 176.5,79.5 C 178.467,79.2606 180.301,79.5939 182,80.5C 186.472,89.1085 190.639,97.7751 194.5,106.5C 192.076,106.808 189.743,106.474 187.5,105.5C 185.088,100.341 182.421,95.3413 179.5,90.5C 177.238,95.449 175.072,100.449 173,105.5C 171.644,106.38 170.144,106.714 168.5,106.5C 168.688,108.103 168.188,109.437 167,110.5C 167.344,102.433 169.511,94.7662 173.5,87.5C 174.833,86.8333 176.167,86.1667 177.5,85.5C 175.826,83.5699 175.493,81.5699 176.5,79.5 Z"/></g>
<g><path style="opacity:1" fill="#343434" d="M 177.5,82.5 C 178.708,81.218 180.042,81.218 181.5,82.5C 185.167,89.8333 188.833,97.1667 192.5,104.5C 191.349,105.731 190.183,105.731 189,104.5C 185.392,96.9477 181.559,89.6144 177.5,82.5 Z"/></g>
<g><path style="opacity:1" fill="#353535" d="M 174.5,88.5 C 175.5,88.5 176.5,88.5 177.5,88.5C 176.076,94.0209 174.076,99.3542 171.5,104.5C 170.675,105.386 169.675,105.719 168.5,105.5C 170.214,99.737 172.214,94.0703 174.5,88.5 Z"/></g>
<g><path style="opacity:0.625" fill="#1a1a1a" d="M 138.5,90.5 C 145.833,90.5 153.167,90.5 160.5,90.5C 160.739,92.4672 160.406,94.3005 159.5,96C 152.833,96.6667 146.167,96.6667 139.5,96C 137.365,94.4443 137.032,92.6109 138.5,90.5 Z"/></g>
<g><path style="opacity:1" fill="#353535" d="M 139.5,91.5 C 145.842,91.3338 152.175,91.5005 158.5,92C 158.957,92.414 159.291,92.914 159.5,93.5C 152.866,94.4967 146.2,94.83 139.5,94.5C 139.5,93.5 139.5,92.5 139.5,91.5 Z"/></g>
<g><path style="opacity:1" fill="#191919" d="M 140.5,100.5 C 147.508,100.334 154.508,100.5 161.5,101C 163.658,102.312 163.991,103.978 162.5,106C 154.833,106.667 147.167,106.667 139.5,106C 138.243,103.924 138.576,102.09 140.5,100.5 Z"/></g>
<g><path style="opacity:0.546" fill="#1b1b1b" d="M 231.5,79.5 C 245.009,78.5145 250.842,84.8479 249,98.5C 244.39,106.144 237.89,108.644 229.5,106C 222.262,102.345 219.762,96.5121 222,88.5C 223.775,83.888 226.942,80.888 231.5,79.5 Z M 231.5,85.5 C 242.857,85.398 245.857,90.2313 240.5,100C 233.459,102.98 228.792,100.813 226.5,93.5C 227.371,90.304 229.038,87.6373 231.5,85.5 Z"/></g>
<g><path style="opacity:1" fill="#343434" d="M 237.5,81.5 C 247.407,84.6481 250.24,90.9814 246,100.5C 244.159,103.178 241.659,104.845 238.5,105.5C 237.614,104.675 237.281,103.675 237.5,102.5C 244.772,100.286 246.939,95.6195 244,88.5C 241.534,86.2419 239.367,83.9086 237.5,81.5 Z"/></g>
<g><path style="opacity:1" fill="#333333" d="M 230.5,81.5 C 231.978,81.238 233.311,81.5713 234.5,82.5C 231.914,84.0426 229.414,85.7093 227,87.5C 223.703,95.574 226.203,100.574 234.5,102.5C 234.5,103.5 234.5,104.5 234.5,105.5C 224.567,103.304 221.067,97.3041 224,87.5C 225.494,84.6865 227.66,82.6865 230.5,81.5 Z"/></g>
<g><path style="opacity:1" fill="#353535" d="M 140.5,102.5 C 147.5,102.5 154.5,102.5 161.5,102.5C 161.5,103.5 161.5,104.5 161.5,105.5C 154.5,105.5 147.5,105.5 140.5,105.5C 140.5,104.5 140.5,103.5 140.5,102.5 Z"/></g>
<g><path style="opacity:0.613" fill="#1a1a1a" d="M 110.5,79.5 C 115.58,79.2497 120.58,79.7497 125.5,81C 135.317,88.2062 135.983,96.2062 127.5,105C 121.557,106.696 115.557,106.862 109.5,105.5C 108.067,103.191 108.734,101.691 111.5,101C 115.5,100.667 119.5,100.333 123.5,100C 129.133,94.5129 128.466,89.8463 121.5,86C 117.5,85.6667 113.5,85.3333 109.5,85C 108.243,82.9235 108.576,81.0902 110.5,79.5 Z"/></g>
<g><path style="opacity:1" fill="#343434" d="M 110.5,81.5 C 114.846,81.3343 119.179,81.501 123.5,82C 130.939,85.1417 133.439,90.6417 131,98.5C 127.681,103.724 122.848,106.057 116.5,105.5C 114.571,105.46 112.738,105.127 111,104.5C 110.833,104.167 110.667,103.833 110.5,103.5C 115.242,102.886 119.909,102.053 124.5,101C 129.008,96.9468 129.674,92.2801 126.5,87C 125.328,86.5814 124.328,85.9147 123.5,85C 119.5,84.6667 115.5,84.3333 111.5,84C 110.748,83.3292 110.414,82.4959 110.5,81.5 Z"/></g>
<g><path style="opacity:0.511" fill="#1b1b1b" d="M 79.5,65.5 C 86.6315,65.3099 91.7981,68.3099 95,74.5C 97.3182,84.7222 98.3182,95.0556 98,105.5C 97.1166,108.102 95.6166,110.269 93.5,112C 85.8266,116.339 77.8266,119.839 69.5,122.5C 66.3269,121.79 63.3269,120.623 60.5,119C 55.6667,114.167 50.8333,109.333 46,104.5C 40.6899,96.2908 41.5232,88.7908 48.5,82C 58.7665,76.1996 69.0998,70.6996 79.5,65.5 Z M 78.5,71.5 C 84.0591,70.2314 87.8924,72.2314 90,77.5C 91.5799,85.8044 92.5799,94.1377 93,102.5C 92.214,105.583 90.3807,107.749 87.5,109C 82.8333,111.333 78.1667,113.667 73.5,116C 71.1667,116.667 68.8333,116.667 66.5,116C 58.5246,110.197 52.1913,103.03 47.5,94.5C 48.1823,91.6345 49.5156,89.1345 51.5,87C 60.5627,81.8063 69.5627,76.6397 78.5,71.5 Z"/></g>
<g><path style="opacity:1" fill="#333333" d="M 77.5,67.5 C 87.9125,66.4104 93.7459,71.0771 95,81.5C 96.237,88.8138 96.9036,96.1472 97,103.5C 95.8955,108.206 93.0622,111.373 88.5,113C 81.4792,117.787 73.8125,120.121 65.5,120C 58.7503,114.254 52.2503,108.088 46,101.5C 43.6939,95.7286 44.1939,90.2286 47.5,85C 57.4096,78.9042 67.4096,73.0708 77.5,67.5 Z M 78.5,71.5 C 69.5627,76.6397 60.5627,81.8063 51.5,87C 49.5156,89.1345 48.1823,91.6345 47.5,94.5C 52.1913,103.03 58.5246,110.197 66.5,116C 68.8333,116.667 71.1667,116.667 73.5,116C 78.1667,113.667 82.8333,111.333 87.5,109C 90.3807,107.749 92.214,105.583 93,102.5C 92.5799,94.1377 91.5799,85.8044 90,77.5C 87.8924,72.2314 84.0591,70.2314 78.5,71.5 Z"/></g>
<g><path style="opacity:0.506" fill="#1a1a1a" d="M 78.5,69.5 C 85.2313,68.4476 89.7313,71.1142 92,77.5C 93.2138,85.1633 94.3804,92.8299 95.5,100.5C 94.9512,104.555 92.9512,107.722 89.5,110C 84.1667,112.667 78.8333,115.333 73.5,118C 71.1667,118.667 68.8333,118.667 66.5,118C 60.0311,112.532 53.8644,106.699 48,100.5C 45.0273,93.786 46.5273,88.286 52.5,84C 61.3903,79.3925 70.057,74.5591 78.5,69.5 Z M 78.5,71.5 C 69.5627,76.6397 60.5627,81.8063 51.5,87C 49.5156,89.1345 48.1823,91.6345 47.5,94.5C 52.1913,103.03 58.5246,110.197 66.5,116C 68.8333,116.667 71.1667,116.667 73.5,116C 78.1667,113.667 82.8333,111.333 87.5,109C 90.3807,107.749 92.214,105.583 93,102.5C 92.5799,94.1377 91.5799,85.8044 90,77.5C 87.8924,72.2314 84.0591,70.2314 78.5,71.5 Z"/></g>
</svg>
